<?xml version="1.0" encoding="iso-8859-1"?>
<!-- Generator: Adobe Illustrator 19.0.0, SVG Export Plug-In . SVG Version: 6.00 Build 0)  -->
<svg version="1.1" id="Layer_1" xmlns="http://www.w3.org/2000/svg" xmlns:xlink="http://www.w3.org/1999/xlink" x="0px" y="0px"
	 viewBox="0 0 512 512" style="enable-background:new 0 0 512 512;" xml:space="preserve">
<circle style="fill:#F2CF61;" cx="256" cy="256" r="256"/>
<path style="fill:#B3B3B3;" d="M0,404h512v12l0,0c0,6.6-5.4,12-12,12H12c-6.596,0-12-5.4-12-12l0,0V404z"/>
<polygon style="fill:#E6E6E6;" points="432,332 80,332 0,404 512,404 "/>
<polygon style="fill:#F5F5F5;" points="41.696,388 86.14,348 425.86,348 470.304,388 "/>
<path style="fill:#E6E6E6;" d="M288,404c0,4.416-3.584,8-8,8h-56c-4.416,0-8-3.584-8-8H288z"/>
<path style="fill:#263740;" d="M80,332V116c0-6.6,5.404-12,12-12h328c6.6,0,12,5.4,12,12v216H80z"/>
<rect x="104" y="128" style="fill:#406A80;" width="304" height="184"/>
<circle style="fill:#70CCBD;" cx="412" cy="340" r="4"/>
<circle style="fill:#CC584C;" cx="256" cy="116" r="4"/>
<path style="fill:#263740;" d="M460,420h-40c-2.208,0-4-1.788-4-4s1.792-4,4-4h40c2.212,0,4,1.788,4,4S462.212,420,460,420z"/>
<g>
</g>
<g>
</g>
<g>
</g>
<g>
</g>
<g>
</g>
<g>
</g>
<g>
</g>
<g>
</g>
<g>
</g>
<g>
</g>
<g>
</g>
<g>
</g>
<g>
</g>
<g>
</g>
<g>
</g>
</svg>
